<?xml version="1.0" encoding="UTF-8" standalone="no" ?>
<!DOCTYPE svg PUBLIC "-//W3C//DTD SVG 1.1//EN" "http://www.w3.org/Graphics/SVG/1.1/DTD/svg11.dtd">
<svg xmlns="http://www.w3.org/2000/svg" xmlns:xlink="http://www.w3.org/1999/xlink" version="1.1" width="500" height="500" viewBox="0 0 500 500" xml:space="preserve">
<desc>Created with Fabric.js 4.6.0</desc>
<defs>
</defs>
<g transform="matrix(1 0 0 1 195 370)" id="665I07V3h5uspAVAU4_nv"  >
<path style="stroke: rgb(137,251,233); stroke-width: 0; stroke-dasharray: none; stroke-linecap: butt; stroke-dashoffset: 0; stroke-linejoin: miter; stroke-miterlimit: 4; fill: rgb(163,88,223); fill-rule: nonzero; opacity: 1;" vector-effect="non-scaling-stroke"  transform=" translate(-55, -30)" d="M 0 0 L 110 0 L 110 60 L 0 60 z" stroke-linecap="round" />
</g>
<g transform="matrix(1 0 0 1 305 370)" id="VEZeuWfjdwXp1xzuwt6x4"  >
<path style="stroke: rgb(137,251,233); stroke-width: 0; stroke-dasharray: none; stroke-linecap: butt; stroke-dashoffset: 0; stroke-linejoin: miter; stroke-miterlimit: 4; fill: rgb(255,204,0); fill-rule: nonzero; opacity: 1;" vector-effect="non-scaling-stroke"  transform=" translate(-55, -30)" d="M 0 0 L 110 0 L 110 60 L 0 60 z" stroke-linecap="round" />
</g>
<g transform="matrix(1 0 0 1 195 310)" id="4sMOUzH1g5XB9CEOKVw36"  >
<path style="stroke: rgb(137,251,233); stroke-width: 0; stroke-dasharray: none; stroke-linecap: butt; stroke-dashoffset: 0; stroke-linejoin: miter; stroke-miterlimit: 4; fill: rgb(242,141,0); fill-rule: nonzero; opacity: 1;" vector-effect="non-scaling-stroke"  transform=" translate(-55, -30)" d="M 0 0 L 110 0 L 110 60 L 0 60 z" stroke-linecap="round" />
</g>
<g transform="matrix(1 0 0 1 305 310)" id="1zBUei4eNCdFa4m5-kC3z"  >
<path style="stroke: rgb(137,251,233); stroke-width: 0; stroke-dasharray: none; stroke-linecap: butt; stroke-dashoffset: 0; stroke-linejoin: miter; stroke-miterlimit: 4; fill: rgb(0,200,117); fill-rule: nonzero; opacity: 1;" vector-effect="non-scaling-stroke"  transform=" translate(-55, -30)" d="M 0 0 L 110 0 L 110 60 L 0 60 z" stroke-linecap="round" />
</g>
<g transform="matrix(1 0 0 1 195 250)" id="AMmv3tQIQKTpDJq6lF4po"  >
<path style="stroke: rgb(137,251,233); stroke-width: 0; stroke-dasharray: none; stroke-linecap: butt; stroke-dashoffset: 0; stroke-linejoin: miter; stroke-miterlimit: 4; fill: rgb(246,43,84); fill-rule: nonzero; opacity: 1;" vector-effect="non-scaling-stroke"  transform=" translate(-55, -30)" d="M 0 0 L 110 0 L 110 60 L 0 60 z" stroke-linecap="round" />
</g>
<g transform="matrix(1 0 0 1 305 250)" id="O1xLQBYljMCG-lCHgkn5R"  >
<path style="stroke: rgb(137,251,233); stroke-width: 0; stroke-dasharray: none; stroke-linecap: butt; stroke-dashoffset: 0; stroke-linejoin: miter; stroke-miterlimit: 4; fill: rgb(163,88,223); fill-rule: nonzero; opacity: 1;" vector-effect="non-scaling-stroke"  transform=" translate(-55, -30)" d="M 0 0 L 110 0 L 110 60 L 0 60 z" stroke-linecap="round" />
</g>
<g transform="matrix(0.98 0.17 -0.17 0.98 304.26 173.48)" id="j0lj4hRKJocXNr4ILhku2"  >
<path style="stroke: rgb(137,251,233); stroke-width: 0; stroke-dasharray: none; stroke-linecap: butt; stroke-dashoffset: 0; stroke-linejoin: miter; stroke-miterlimit: 4; fill: rgb(0,200,117); fill-rule: nonzero; opacity: 1;" vector-effect="non-scaling-stroke"  transform=" translate(-55, -30)" d="M 0 0 L 110 0 L 110 60 L 0 60 z" stroke-linecap="round" />
</g>
<g transform="matrix(-0.94 0.34 -0.34 -0.94 208.55 107)" id="RXaYWgdLzfecVOjKjET-L"  >
<path style="stroke: rgb(137,251,233); stroke-width: 0; stroke-dasharray: none; stroke-linecap: butt; stroke-dashoffset: 0; stroke-linejoin: miter; stroke-miterlimit: 4; fill: rgb(242,141,0); fill-rule: nonzero; opacity: 1;" vector-effect="non-scaling-stroke"  transform=" translate(-55, -30)" d="M 0 0 L 110 0 L 110 60 L 0 60 z" stroke-linecap="round" />
</g>
<g transform="matrix(1 0 0 1 85 250)" id="HF_30rgs5uiI4w9nz9And"  >
<path style="stroke: none; stroke-width: 1; stroke-dasharray: none; stroke-linecap: butt; stroke-dashoffset: 0; stroke-linejoin: miter; stroke-miterlimit: 4; fill: rgb(68,140,255); fill-rule: nonzero; opacity: 1;" vector-effect="non-scaling-stroke"  transform=" translate(-65, -230)" d="M 0.00129 210.35221 L 0.00129 249.39701000000002 C 11.50251 249.64541000000003 20.928900000000002 252.99421 28.20117 259.43881000000005 C 35.40844 265.81901000000005 40.24319 274.47161000000006 42.69631 285.33791 C 45.06883 296.28591 46.37405 315.07231 46.45075 341.70631000000003 C 46.60935 368.42311 47.06306 385.90311 47.83266 394.40851000000004 C 49.200269999999996 407.96931000000006 51.662499999999994 418.74711 55.340239999999994 426.83391000000006 C 59.017979999999994 434.92071000000004 63.542019999999994 441.36991000000006 68.91238 446.1907100000001 C 74.34903 451.09431000000006 81.2443 454.77431000000007 89.59949 457.3043100000001 C 95.27145 459.0983100000001 104.55484 459.9999100000001 117.41717 459.9999100000001 L 130 459.9999100000001 L 130 422.4179100000001 L 123.02283 422.4179100000001 C 107.46167 422.4179100000001 97.18897 419.3992100000001 92.05261999999999 413.4445100000001 C 86.99296999999999 407.4691100000001 84.46314 393.9911100000001 84.46314 373.0795100000001 C 84.46314 333.2194100000001 83.77413 307.8883100000001 82.39222 297.1933100000001 C 80.0158 279.5477100000001 75.19534999999999 265.3337100000001 68.06608 254.7031100000001 C 60.85491 244.1726100000001 50.66281 235.9213100000001 37.483270000000005 229.9597100000001 C 54.727940000000004 221.21971000000008 66.83626000000001 209.61851000000007 73.89013 195.15611000000007 C 80.944 180.69371000000007 84.46314 156.34941000000006 84.46314 122.04371000000008 C 84.46314 90.92471000000008 84.77383999999999 72.37291000000008 85.53434999999999 66.24571000000007 C 86.61595999999999 55.55071000000007 89.52278999999999 48.117110000000075 94.42513999999998 43.86101000000008 C 99.25988999999998 39.69341000000008 108.84357999999999 37.56821000000008 123.02282999999998 37.56821000000008 L 129.99999999999997 37.56821000000008 L 129.99999999999997 0.000010000000081333837 L 117.41716999999997 0.000010000000081333837 C 102.77901999999997 0.000010000000081333837 92.12931999999998 1.2236100000000814 85.53434999999998 3.836410000000081 C 75.95064999999997 7.350810000000081 68.06477999999997 13.225010000000081 61.78180999999998 21.482010000000084 C 55.497549999999976 29.817210000000085 51.35180999999998 40.263810000000085 49.51488999999998 52.85511000000008 C 47.67276999999998 65.50971000000008 46.60805999999998 86.18781000000008 46.44945999999998 114.84931000000009 C 46.37275999999998 143.60851000000008 45.06754999999998 163.3793100000001 42.69501999999998 174.3273100000001 C 40.24189999999998 185.2753100000001 35.40714999999998 193.9325100000001 28.19987999999998 200.30811000000008 C 20.92630999999998 206.67451000000008 11.501209999999979 210.0233100000001 -2.1316282072803006e-14 210.3545100000001 z" stroke-linecap="round" />
</g>
<g transform="matrix(-1 0 0 1 415 250)" id="Q0uPbO1MBLdvopA-EbWq-"  >
<path style="stroke: none; stroke-width: 1; stroke-dasharray: none; stroke-linecap: butt; stroke-dashoffset: 0; stroke-linejoin: miter; stroke-miterlimit: 4; fill: rgb(225,85,85); fill-rule: nonzero; opacity: 1;" vector-effect="non-scaling-stroke"  transform=" translate(-65, -230)" d="M 0.00124 210.35461 L 0.00124 249.39941000000002 C 11.50199 249.64781000000002 20.92884 252.99661 28.20133 259.44121 C 35.408319999999996 265.82141 40.24362 274.47401 42.696889999999996 285.33921000000004 C 45.068599999999996 296.28721 46.374559999999995 315.07361000000003 46.45153 341.70641 C 46.61018 368.42321 47.06433 385.90321 47.83336 394.40861 C 49.1991 407.96941000000004 51.66277 418.74721 55.34036 426.83401000000003 C 59.018029999999996 434.91961000000003 63.54173 441.37001000000004 68.91272 446.19081000000006 C 74.34930999999999 451.09441000000004 81.24580999999999 454.77551000000005 89.60011 457.3044100000001 C 95.27232000000001 459.09951000000007 104.55432 460.0000100000001 117.41741 460.0000100000001 L 130.00001 460.0000100000001 L 130.00001 422.4180100000001 L 123.02295000000001 422.4180100000001 C 107.46174 422.4180100000001 97.18878000000001 419.4004100000001 92.0523 413.4434100000001 C 86.9928 407.4680100000001 84.46252 393.9900100000001 84.46252 373.0784100000001 C 84.46252 333.2194100000001 83.77383999999999 307.8872100000001 82.39201 297.19221000000005 C 80.0157 279.54661000000004 75.19541 265.33261000000005 68.06429 254.70201000000003 C 60.8516 244.17261000000002 50.6614 235.92021000000003 37.48101 229.95861000000002 C 54.72526 221.21861 66.83421 209.61741 73.88825 195.15501 C 80.94229 180.69261 84.46132 156.34941 84.46132 122.04261000000001 C 84.46132 90.92251000000002 84.77171 72.37181000000001 85.53277 66.24461000000001 C 86.61462 55.54961000000001 89.52083 48.11601000000001 94.4239 43.86101000000001 C 99.25918 39.69341000000001 108.84238 37.56821000000001 123.02175 37.56821000000001 L 129.99881 37.56821000000001 L 129.99881 0.000010000000010279564 L 117.41620999999999 0.000010000000010279564 C 102.77808999999999 0.000010000000010279564 92.12805999999999 1.2236100000000103 85.53385999999999 3.83641000000001 C 75.95066999999999 7.34961000000001 68.06428999999999 13.22611000000001 61.781589999999994 21.482010000000013 C 55.49777999999999 29.81831000000001 51.35106999999999 40.263810000000014 49.515179999999994 52.85401000000002 C 47.67459999999999 65.50861000000002 46.60773999999999 86.18561000000003 46.450289999999995 114.84931000000002 C 46.37320999999999 143.60851000000002 45.068459999999995 163.37931000000003 42.69564999999999 174.32731 C 40.242369999999994 185.27531000000002 35.40588999999999 193.93251 28.200089999999996 200.30811 C 20.926419999999997 206.67561 11.501869999999997 210.02331 -3.552713678800501e-15 210.35451 z" stroke-linecap="round" />
</g>
</svg>